<svg width="100" height="100" viewBox="0 0 110 100" xmlns="http://www.w3.org/2000/svg"
    xmlns:xlink="http://www.w3.org/1999/xlink">
    <path
        fill="#1c65db"
        d="M72.4576015,15.1117393 C65.6574803,17.9431327 59.5505754,21.9926837 54.5,26.9311606 C49.4494246,21.9926837 43.3425197,17.9431327 36.5423985,15.1117393 L0,0 L0,16.2969737 C0,26.3385434 6.00787402,35.3265713 15.3167777,39.1785833 L24.8897638,43.1293648 C33.6705027,46.7838377 39.3152635,54.0598603 39.3152635,61.6980379 L39.3152635,77.2377785 C39.3152635,86.0611906 44.2337977,93.9298304 52.1562689,97.8476887 L54.5,99 L56.8437311,97.8476887 C64.7662023,93.9627536 69.6847365,86.0611906 69.6847365,77.2377785 L69.6847365,61.6980379 C69.6847365,54.0598603 75.3625076,46.7838377 84.1102362,43.162288 L93.6832223,39.2115065 C102.992126,35.3594945 109,26.3714666 109,16.3298969 L109,0 L72.4576015,15.1117393 Z M28.9500303,33.3182574 L19.3770442,29.3674759 C14.0623864,27.1616229 10.5963053,22.0256069 10.5963053,16.2640505 L10.5963053,15.8360492 L32.4491217,24.8899235 C38.3249546,27.3262388 43.5075712,30.9148653 47.7328892,35.2278018 C45.9173228,37.9275025 44.3328286,40.7588959 43.0784373,43.721982 C39.5133253,39.3761224 34.7268322,35.7545727 28.9500303,33.3182574 Z M59.0884313,77.1719322 C59.0884313,80.991021 57.3718958,84.480878 54.5,86.7855005 C51.6281042,84.480878 49.9115687,80.9580978 49.9115687,77.1719322 L49.9115687,61.6321916 C49.9115687,55.5414034 51.5290733,49.6481543 54.5,44.2158297 C57.4709267,49.6481543 59.0884313,55.5414034 59.0884313,61.6321916 L59.0884313,77.1719322 Z M98.4036947,16.2640505 C98.4036947,22.0256069 94.9706239,27.1616229 89.6229558,29.3674759 L80.0499697,33.3182574 C74.2731678,35.7216495 69.4866747,39.3761224 65.8885524,43.721982 C64.6341611,40.7588959 63.0826772,37.9275025 61.2341005,35.2278018 C65.4594185,30.9148653 70.6420351,27.3262388 76.517868,24.8899235 L98.3706844,15.8360492 L98.3706844,16.2640505 L98.4036947,16.2640505 Z"></path>
</svg>